<svg width="95" height="113" viewBox="0 0 95 113" fill="none" xmlns="http://www.w3.org/2000/svg">
<path opacity="0.7" d="M77.1354 37.4397L3.77498 37.4876C2.73561 37.4882 1.84353 37.229 1.11984 36.7028C0.389129 36.1836 0.023441 35.4185 0.0227856 34.4143C0.0223227 33.705 0.190415 33.0167 0.520045 32.3424L15.0734 3.17664C15.4872 2.29859 16.1889 1.55378 17.1647 0.949235C18.1475 0.351705 19.1165 0.0491151 20.0716 0.0484918L91.3673 0.00196167C92.203 0.00141625 92.9124 0.211618 93.4956 0.625548C94.0788 1.0465 94.3741 1.65022 94.3746 2.44373C94.375 3.02657 94.0596 3.94669 93.4354 5.20408L77.4443 37.2569C77.325 37.3764 77.2197 37.4396 77.1354 37.4397Z" fill="#5ED5A8"/>
<path d="M70.8184 41.4609L16.6872 74.9782L33.2954 41.4854L70.8184 41.4609ZM69.741 112.372L3.82479 112.415C2.78542 112.416 1.93546 112.121 1.28898 111.539C0.642495 110.956 0.318926 110.163 0.31827 109.159C0.317615 108.155 0.590861 107.172 1.13099 106.209L14.8707 78.5467L69.741 112.372Z" fill="white"/>
<path opacity="0.7" d="M77.2482 112.178C77.1218 112.178 68.3749 106.826 51.0004 96.1146C33.626 85.403 23.4599 79.1317 20.5021 77.2938L60.137 52.8166L93.1083 73.1104C94.2746 73.8188 94.8582 74.9069 94.8591 76.3675C94.8595 76.9504 94.7335 77.4982 94.488 77.9969L77.6273 111.925C77.5361 112.094 77.4167 112.178 77.2482 112.178Z" fill="#5ED5A8"/>
</svg>
