<svg width="96" height="116" viewBox="0 0 96 116" fill="none" xmlns="http://www.w3.org/2000/svg">
<path opacity="0.7" d="M78.1354 37.4397L4.77498 37.4876C3.7356 37.4882 2.84353 37.229 2.11984 36.7028C1.38913 36.1836 1.02344 35.4185 1.02278 34.4143C1.02232 33.705 1.19041 33.0167 1.52005 32.3424L16.0734 3.17664C16.4872 2.29859 17.189 1.55378 18.1647 0.949235C19.1475 0.351705 20.1165 0.0491151 21.0716 0.0484918L92.3673 0.00196167C93.203 0.00141625 93.9124 0.211618 94.4956 0.625548C95.0788 1.0465 95.3741 1.65022 95.3746 2.44373C95.375 3.02657 95.0596 3.94669 94.4354 5.20408L78.4443 37.2569C78.325 37.3764 78.2196 37.4396 78.1354 37.4397V37.4397Z" fill="#5ED5A8"/>
<path opacity="0.7" d="M78.1354 115.44L4.77498 115.488C3.7356 115.488 2.84353 115.229 2.11984 114.703C1.38913 114.184 1.02344 113.418 1.02278 112.414C1.02232 111.705 1.19041 111.017 1.52005 110.342L16.0734 81.1766C16.4872 80.2986 17.189 79.5538 18.1647 78.9492C19.1475 78.3517 20.1165 78.0491 21.0716 78.0485L92.3673 78.002C93.203 78.0014 93.9124 78.2116 94.4956 78.6255C95.0788 79.0465 95.3741 79.6502 95.3746 80.4437C95.375 81.0266 95.0596 81.9467 94.4354 83.2041L78.4443 115.257C78.325 115.376 78.2196 115.44 78.1354 115.44V115.44Z" fill="#5ED5A8"/>
<path d="M0.294922 36.958L54.1507 3.0001L37.8164 36.6273L0.294922 36.958Z" fill="white"/>
<path d="M79.4941 36.998L19.2587 74.295L37.7398 37.0253L79.4941 36.998ZM78.2953 115.906L4.94582 115.954C3.78923 115.954 2.84343 115.627 2.12405 114.979C1.40467 114.33 1.04461 113.448 1.04388 112.33C1.04315 111.213 1.34721 110.119 1.94824 109.048L17.2373 78.2659L78.2953 115.906Z" fill="white"/>
</svg>
